<mxfile host="app.diagrams.net" modified="2023-10-28T22:06:38.650Z" agent="Mozilla/5.0 (Windows NT 10.0; Win64; x64; rv:120.0) Gecko/20100101 Firefox/120.0" etag="yWQsVzK0XqIu-CWBGLI6" version="22.0.8" type="device">
  <diagram name="Page-1" id="MFobO5SOsz_IWEaSHGrF">
    <mxGraphModel dx="1050" dy="654" grid="1" gridSize="10" guides="1" tooltips="1" connect="1" arrows="1" fold="1" page="1" pageScale="1" pageWidth="850" pageHeight="1100" math="0" shadow="0">
      <root>
        <mxCell id="0" />
        <mxCell id="1" parent="0" />
        <mxCell id="TE616-ZBi4tfNnkNJZ4B-10" value="" style="group;movable=0;resizable=0;rotatable=0;deletable=0;editable=0;locked=1;connectable=0;" vertex="1" connectable="0" parent="1">
          <mxGeometry x="50" y="80" width="300" height="400" as="geometry" />
        </mxCell>
        <mxCell id="TE616-ZBi4tfNnkNJZ4B-1" value="Backend&lt;br&gt;Django + Rest" style="rounded=1;whiteSpace=wrap;html=1;" vertex="1" parent="TE616-ZBi4tfNnkNJZ4B-10">
          <mxGeometry x="80" y="150" width="120" height="60" as="geometry" />
        </mxCell>
        <mxCell id="TE616-ZBi4tfNnkNJZ4B-2" value="Frontend&lt;br&gt;React" style="rounded=1;whiteSpace=wrap;html=1;" vertex="1" parent="TE616-ZBi4tfNnkNJZ4B-10">
          <mxGeometry x="80" y="320" width="120" height="60" as="geometry" />
        </mxCell>
        <mxCell id="TE616-ZBi4tfNnkNJZ4B-3" value="ConexÃ£o&lt;br&gt;API Rest" style="edgeStyle=orthogonalEdgeStyle;rounded=0;orthogonalLoop=1;jettySize=auto;html=1;startArrow=classic;startFill=1;endArrow=none;endFill=0;" edge="1" parent="TE616-ZBi4tfNnkNJZ4B-10" source="TE616-ZBi4tfNnkNJZ4B-1" target="TE616-ZBi4tfNnkNJZ4B-2">
          <mxGeometry relative="1" as="geometry" />
        </mxCell>
        <mxCell id="TE616-ZBi4tfNnkNJZ4B-5" value="DB" style="shape=datastore;whiteSpace=wrap;html=1;" vertex="1" parent="TE616-ZBi4tfNnkNJZ4B-10">
          <mxGeometry x="110" y="20" width="60" height="60" as="geometry" />
        </mxCell>
        <mxCell id="TE616-ZBi4tfNnkNJZ4B-6" style="edgeStyle=orthogonalEdgeStyle;rounded=0;orthogonalLoop=1;jettySize=auto;html=1;exitX=0.5;exitY=0;exitDx=0;exitDy=0;entryX=0.5;entryY=1;entryDx=0;entryDy=0;startArrow=classic;startFill=1;shape=link;" edge="1" parent="TE616-ZBi4tfNnkNJZ4B-10" source="TE616-ZBi4tfNnkNJZ4B-1" target="TE616-ZBi4tfNnkNJZ4B-5">
          <mxGeometry relative="1" as="geometry" />
        </mxCell>
        <mxCell id="TE616-ZBi4tfNnkNJZ4B-9" value="Site" style="shape=umlFrame;whiteSpace=wrap;html=1;pointerEvents=0;" vertex="1" parent="TE616-ZBi4tfNnkNJZ4B-10">
          <mxGeometry width="300" height="400" as="geometry" />
        </mxCell>
        <mxCell id="TE616-ZBi4tfNnkNJZ4B-36" value="" style="group;movable=0;resizable=0;rotatable=0;deletable=0;editable=0;locked=1;connectable=0;" vertex="1" connectable="0" parent="1">
          <mxGeometry x="430" y="60" width="390" height="440" as="geometry" />
        </mxCell>
        <mxCell id="TE616-ZBi4tfNnkNJZ4B-11" value="Personal&lt;br&gt;Development&lt;br&gt;Branch" style="rounded=1;whiteSpace=wrap;html=1;" vertex="1" parent="TE616-ZBi4tfNnkNJZ4B-36">
          <mxGeometry x="50" y="155" width="120" height="60" as="geometry" />
        </mxCell>
        <mxCell id="TE616-ZBi4tfNnkNJZ4B-17" value="Workflows" style="shape=process;whiteSpace=wrap;html=1;backgroundOutline=1;" vertex="1" parent="TE616-ZBi4tfNnkNJZ4B-36">
          <mxGeometry x="50" y="270" width="120" height="60" as="geometry" />
        </mxCell>
        <mxCell id="TE616-ZBi4tfNnkNJZ4B-18" value="Done / Fixed" style="edgeStyle=orthogonalEdgeStyle;rounded=0;orthogonalLoop=1;jettySize=auto;html=1;exitX=0.5;exitY=1;exitDx=0;exitDy=0;entryX=0.5;entryY=0;entryDx=0;entryDy=0;" edge="1" parent="TE616-ZBi4tfNnkNJZ4B-36" source="TE616-ZBi4tfNnkNJZ4B-11" target="TE616-ZBi4tfNnkNJZ4B-17">
          <mxGeometry relative="1" as="geometry" />
        </mxCell>
        <mxCell id="TE616-ZBi4tfNnkNJZ4B-20" value="Pull Request" style="whiteSpace=wrap;html=1;" vertex="1" parent="TE616-ZBi4tfNnkNJZ4B-36">
          <mxGeometry x="140" y="360" width="120" height="60" as="geometry" />
        </mxCell>
        <mxCell id="TE616-ZBi4tfNnkNJZ4B-32" style="edgeStyle=orthogonalEdgeStyle;rounded=0;orthogonalLoop=1;jettySize=auto;html=1;exitX=0.5;exitY=1;exitDx=0;exitDy=0;entryX=0;entryY=0.5;entryDx=0;entryDy=0;" edge="1" parent="TE616-ZBi4tfNnkNJZ4B-36" source="TE616-ZBi4tfNnkNJZ4B-17" target="TE616-ZBi4tfNnkNJZ4B-20">
          <mxGeometry relative="1" as="geometry" />
        </mxCell>
        <mxCell id="TE616-ZBi4tfNnkNJZ4B-22" value="Workflows" style="shape=process;whiteSpace=wrap;html=1;backgroundOutline=1;" vertex="1" parent="TE616-ZBi4tfNnkNJZ4B-36">
          <mxGeometry x="240" y="270" width="120" height="60" as="geometry" />
        </mxCell>
        <mxCell id="TE616-ZBi4tfNnkNJZ4B-33" value="Merged" style="edgeStyle=orthogonalEdgeStyle;rounded=0;orthogonalLoop=1;jettySize=auto;html=1;exitX=1;exitY=0.5;exitDx=0;exitDy=0;entryX=0.5;entryY=1;entryDx=0;entryDy=0;" edge="1" parent="TE616-ZBi4tfNnkNJZ4B-36" source="TE616-ZBi4tfNnkNJZ4B-20" target="TE616-ZBi4tfNnkNJZ4B-22">
          <mxGeometry x="0.2" relative="1" as="geometry">
            <mxPoint as="offset" />
          </mxGeometry>
        </mxCell>
        <mxCell id="TE616-ZBi4tfNnkNJZ4B-24" value="Development" style="rounded=1;whiteSpace=wrap;html=1;" vertex="1" parent="TE616-ZBi4tfNnkNJZ4B-36">
          <mxGeometry x="240" y="155" width="120" height="60" as="geometry" />
        </mxCell>
        <mxCell id="TE616-ZBi4tfNnkNJZ4B-34" style="edgeStyle=orthogonalEdgeStyle;rounded=0;orthogonalLoop=1;jettySize=auto;html=1;exitX=0.5;exitY=0;exitDx=0;exitDy=0;entryX=0.5;entryY=1;entryDx=0;entryDy=0;" edge="1" parent="TE616-ZBi4tfNnkNJZ4B-36" source="TE616-ZBi4tfNnkNJZ4B-22" target="TE616-ZBi4tfNnkNJZ4B-24">
          <mxGeometry relative="1" as="geometry" />
        </mxCell>
        <mxCell id="TE616-ZBi4tfNnkNJZ4B-27" value="Assigned" style="edgeStyle=orthogonalEdgeStyle;rounded=0;orthogonalLoop=1;jettySize=auto;html=1;exitX=0.5;exitY=1;exitDx=0;exitDy=0;entryX=0.5;entryY=0;entryDx=0;entryDy=0;" edge="1" parent="TE616-ZBi4tfNnkNJZ4B-36" source="TE616-ZBi4tfNnkNJZ4B-26" target="TE616-ZBi4tfNnkNJZ4B-11">
          <mxGeometry relative="1" as="geometry" />
        </mxCell>
        <mxCell id="TE616-ZBi4tfNnkNJZ4B-26" value="Github&lt;br&gt;Issue" style="ellipse;whiteSpace=wrap;html=1;" vertex="1" parent="TE616-ZBi4tfNnkNJZ4B-36">
          <mxGeometry x="50" y="20" width="120" height="80" as="geometry" />
        </mxCell>
        <mxCell id="TE616-ZBi4tfNnkNJZ4B-28" value="Production" style="rounded=1;whiteSpace=wrap;html=1;" vertex="1" parent="TE616-ZBi4tfNnkNJZ4B-36">
          <mxGeometry x="240" y="30" width="120" height="60" as="geometry" />
        </mxCell>
        <mxCell id="TE616-ZBi4tfNnkNJZ4B-29" value="Version released" style="edgeStyle=orthogonalEdgeStyle;rounded=0;orthogonalLoop=1;jettySize=auto;html=1;" edge="1" parent="TE616-ZBi4tfNnkNJZ4B-36" source="TE616-ZBi4tfNnkNJZ4B-24" target="TE616-ZBi4tfNnkNJZ4B-28">
          <mxGeometry relative="1" as="geometry" />
        </mxCell>
        <mxCell id="TE616-ZBi4tfNnkNJZ4B-35" value="Github" style="shape=umlFrame;whiteSpace=wrap;html=1;pointerEvents=0;" vertex="1" parent="TE616-ZBi4tfNnkNJZ4B-36">
          <mxGeometry width="390" height="440" as="geometry" />
        </mxCell>
      </root>
    </mxGraphModel>
  </diagram>
</mxfile>
